<svg width="18" height="19" viewBox="0 0 18 19" fill="none" xmlns="http://www.w3.org/2000/svg">
<g id="account-group">
<path id="Vector" d="M9 4.63635C9.69619 4.63635 10.3639 4.90453 10.8562 5.3819C11.3484 5.85926 11.625 6.50671 11.625 7.18181C11.625 7.8569 11.3484 8.50435 10.8562 8.98172C10.3639 9.45908 9.69619 9.72726 9 9.72726C8.30381 9.72726 7.63613 9.45908 7.14384 8.98172C6.65156 8.50435 6.375 7.8569 6.375 7.18181C6.375 6.50671 6.65156 5.85926 7.14384 5.3819C7.63613 4.90453 8.30381 4.63635 9 4.63635ZM3.75 6.45453C4.17 6.45453 4.56 6.56363 4.8975 6.75999C4.785 7.79999 5.1 8.83272 5.745 9.63999C5.37 10.3382 4.62 10.8182 3.75 10.8182C3.15326 10.8182 2.58097 10.5883 2.15901 10.1791C1.73705 9.76996 1.5 9.21501 1.5 8.63635C1.5 8.0577 1.73705 7.50274 2.15901 7.09357C2.58097 6.6844 3.15326 6.45453 3.75 6.45453ZM14.25 6.45453C14.8467 6.45453 15.419 6.6844 15.841 7.09357C16.2629 7.50274 16.5 8.0577 16.5 8.63635C16.5 9.21501 16.2629 9.76996 15.841 10.1791C15.419 10.5883 14.8467 10.8182 14.25 10.8182C13.38 10.8182 12.63 10.3382 12.255 9.63999C12.9 8.83272 13.215 7.79999 13.1025 6.75999C13.44 6.56363 13.83 6.45453 14.25 6.45453ZM4.125 13.9091C4.125 12.4036 6.3075 11.1818 9 11.1818C11.6925 11.1818 13.875 12.4036 13.875 13.9091V15.1818H4.125V13.9091ZM0 15.1818V14.0909C0 13.08 1.4175 12.2291 3.3375 11.9818C2.895 12.4764 2.625 13.16 2.625 13.9091V15.1818H0ZM18 15.1818H15.375V13.9091C15.375 13.16 15.105 12.4764 14.6625 11.9818C16.5825 12.2291 18 13.08 18 14.0909V15.1818Z" fill="#9FB1FD"/>
</g>
</svg>
