<svg width="32" height="32" viewBox="0 0 32 32" fill="none" xmlns="http://www.w3.org/2000/svg">
<g id="family-tree">
<path id="Intersect" fill-rule="evenodd" clip-rule="evenodd" d="M13.3666 7.64298C14.0189 7.01786 14.9036 6.66667 15.8261 6.66667C16.7486 6.66667 17.6333 7.01786 18.2856 7.64298C18.9379 8.2681 19.3043 9.11594 19.3043 10C19.304 10.6483 19.1064 11.2824 18.7357 11.8247C18.365 12.3671 17.8374 12.794 17.2174 13.0533V14.6667H22.7826C23.5206 14.6667 24.2284 14.9476 24.7502 15.4477C25.2721 15.9478 25.5652 16.6261 25.5652 17.3333V18.28C26.1852 18.5393 26.7129 18.9663 27.0835 19.5086C27.4542 20.0509 27.6518 20.685 27.6522 21.3333C27.6518 21.9816 27.4542 22.6158 27.0835 23.1581C26.7129 23.7004 26.1852 24.1273 25.5652 24.3867V25.3333H22.7826V24.3867C22.1626 24.1273 21.635 23.7004 21.2643 23.1581C20.8936 22.6158 20.696 21.9816 20.6957 21.3333C20.696 20.685 20.8936 20.0509 21.2643 19.5086C21.635 18.9663 22.1626 18.5393 22.7826 18.28V17.3333H8.86957V18.28C9.48957 18.5393 10.0172 18.9663 10.3879 19.5086C10.7586 20.0509 10.9562 20.685 10.9565 21.3333C10.9562 21.9816 10.7586 22.6158 10.3879 23.1581C10.0172 23.7004 9.48957 24.1273 8.86957 24.3867V25.3333H6.08696V24.3867C5.46695 24.1273 4.9393 23.7004 4.56863 23.1581C4.19796 22.6158 4.00035 21.9816 4 21.3333C4.00035 20.685 4.19796 20.0509 4.56863 19.5086C4.9393 18.9663 5.46695 18.5393 6.08696 18.28V17.3333C6.08696 16.6261 6.38012 15.9478 6.90196 15.4477C7.4238 14.9476 8.13157 14.6667 8.86957 14.6667H14.4348V13.0533C13.8148 12.794 13.2871 12.3671 12.9165 11.8247C12.5458 11.2824 12.3482 10.6483 12.3478 10C12.3478 9.11594 12.7143 8.2681 13.3666 7.64298ZM16.8099 9.05719C16.549 8.80714 16.1951 8.66667 15.8261 8.66667C15.4571 8.66667 15.1032 8.80714 14.8423 9.05719C14.5814 9.30724 14.4348 9.64638 14.4348 10C14.4348 10.3536 14.5814 10.6928 14.8423 10.9428C15.1032 11.1929 15.4571 11.3333 15.8261 11.3333C16.1951 11.3333 16.549 11.1929 16.8099 10.9428C17.0708 10.6928 17.2174 10.3536 17.2174 10C17.2174 9.64638 17.0708 9.30724 16.8099 9.05719ZM8.46206 20.3905C8.20114 20.1405 7.84726 20 7.47826 20C7.10926 20 6.75538 20.1405 6.49446 20.3905C6.23354 20.6406 6.08696 20.9797 6.08696 21.3333C6.08696 21.687 6.23354 22.0261 6.49446 22.2761C6.75538 22.5262 7.10926 22.6667 7.47826 22.6667C7.84726 22.6667 8.20114 22.5262 8.46206 22.2761C8.72298 22.0261 8.86957 21.687 8.86957 21.3333C8.86957 20.9797 8.72298 20.6406 8.46206 20.3905ZM25.1577 20.3905C24.8968 20.1405 24.5429 20 24.1739 20C23.8049 20 23.451 20.1405 23.1901 20.3905C22.9292 20.6406 22.7826 20.9797 22.7826 21.3333C22.7826 21.687 22.9292 22.0261 23.1901 22.2761C23.451 22.5262 23.8049 22.6667 24.1739 22.6667C24.5429 22.6667 24.8968 22.5262 25.1577 22.2761C25.4186 22.0261 25.5652 21.687 25.5652 21.3333C25.5652 20.9797 25.4186 20.6406 25.1577 20.3905Z" fill="#050508"/>
</g>
</svg>
