<svg width="32" height="32" viewBox="0 0 32 32" fill="none" xmlns="http://www.w3.org/2000/svg">
<g id="medal-outline">
<path id="Vector" d="M19.92 26L16 23.6933L12.08 26L13.12 21.5467L9.66666 18.56L14.2133 18.1733L16 14L17.7867 18.1733L22.3333 18.56L18.88 21.5467M26.6667 2.66667H5.33333V5.33333L11.8133 10.1867C9.55254 11.1514 7.69434 12.8674 6.55298 15.0444C5.41162 17.2214 5.05714 19.7258 5.54951 22.134C6.04188 24.5422 7.35087 26.7065 9.25511 28.2608C11.1593 29.8151 13.542 30.664 16 30.664C18.458 30.664 20.8406 29.8151 22.7449 28.2608C24.6491 26.7065 25.9581 24.5422 26.4505 22.134C26.9428 19.7258 26.5884 17.2214 25.447 15.0444C24.3057 12.8674 22.4474 11.1514 20.1867 10.1867L26.6667 5.33333M24 20C24.0007 21.515 23.5712 22.9991 22.7614 24.2796C21.9517 25.5601 20.795 26.5843 19.4259 27.2331C18.0568 27.8819 16.5316 28.1286 15.0278 27.9445C13.524 27.7604 12.1034 27.153 10.9313 26.1931C9.75914 25.2332 8.88368 23.9602 8.40674 22.5222C7.9298 21.0842 7.871 19.5403 8.23718 18.0702C8.60336 16.6001 9.37946 15.2642 10.4752 14.2179C11.5709 13.1716 12.9412 12.458 14.4267 12.16C15.4647 11.9466 16.5353 11.9466 17.5733 12.16C19.3852 12.5234 21.0154 13.503 22.187 14.9321C23.3585 16.3613 23.9991 18.152 24 20ZM16.84 9.33333H15.16L9.82666 5.33333H22.28L16.84 9.33333Z" fill="#050508"/>
</g>
</svg>
