<svg width="220" height="200" viewBox="0 0 220 200" fill="none" xmlns="http://www.w3.org/2000/svg">
<g id="Clip path group">
<mask id="mask0_2_1758" style="mask-type:luminance" maskUnits="userSpaceOnUse" x="0" y="0" width="220" height="200">
<g id="__lottie_element_707">
<path id="Vector" d="M220 0H0V200H220V0Z" fill="white"/>
</g>
</mask>
<g mask="url(#mask0_2_1758)">
<g id="Group">
<g id="Group_2">
<g id="Group_3">
<path id="Vector_2" d="M183.708 99.6764C183.708 104.283 177.135 108.201 176.252 112.555C175.345 117.042 179.866 123.11 178.113 127.237C176.33 131.437 168.723 132.597 166.164 136.33C163.585 140.091 165.383 147.397 162.118 150.585C158.853 153.775 151.372 152.018 147.523 154.537C143.701 157.035 142.513 164.466 138.215 166.208C133.989 167.918 127.776 163.503 123.184 164.39C118.726 165.251 114.715 171.671 110 171.671C105.284 171.671 101.273 165.251 96.8158 164.39C92.222 163.502 86.0091 167.918 81.7824 166.207C77.4836 164.465 76.2964 157.034 72.4742 154.535C68.6235 152.017 61.1433 153.772 57.8787 150.582C54.6141 147.395 56.4116 140.088 53.8334 136.326C51.2765 132.594 43.6685 131.434 41.8861 127.235C40.1332 123.108 44.655 117.039 43.7466 112.553C42.8645 108.199 36.2917 104.283 36.2917 99.6764C36.2917 95.0695 42.8645 91.1529 43.7466 86.7986C44.655 82.3116 40.1342 76.2431 41.8861 72.1156C43.6695 67.9158 51.2775 66.7561 53.8365 63.0227C56.4147 59.2616 54.6171 51.9562 57.8817 48.7665C61.1474 45.5778 68.6266 47.3345 72.4782 44.8162C76.2994 42.3177 77.4856 34.8866 81.7854 33.1446C86.0112 31.4334 92.2241 35.8501 96.8158 34.9628C101.274 34.1013 105.284 27.6812 110 27.6812C114.716 27.6812 118.726 34.1013 123.184 34.9628C127.778 35.8501 133.991 31.4344 138.217 33.1466C142.516 34.8876 143.704 42.3197 147.526 44.8182C151.375 47.3365 158.856 45.5807 162.121 48.7705C165.386 51.9582 163.587 59.2656 166.166 63.0277C168.725 66.7601 176.331 67.9187 178.114 72.1176C179.867 76.2451 175.345 82.3136 176.253 86.7996C177.135 91.1529 183.708 95.0695 183.708 99.6764Z" fill="#00C471"/>
</g>
</g>
<g id="Mask group">
<g id="Group_4">
<g id="Group_5">
<g id="Group_6">
<path id="Vector_3" d="M137.913 72.2658C140.697 74.1196 143.357 76.1512 145.877 78.3444C146.875 79.3339 146.876 80.9364 145.878 81.9259C145.878 81.9259 107.375 127.346 106.092 128.548C105.182 129.777 103.438 130.039 102.199 129.135C102.071 129.041 101.951 128.937 101.842 128.824C99.9736 127.459 74.5802 108.262 74.5802 108.262C73.2786 107.187 72.9892 105.322 73.9051 103.908C75.5281 101.436 77.362 99.1067 79.3872 96.9458C80.5512 95.8654 82.3613 95.8654 83.5253 96.9458C84.4537 97.6082 99.4175 109.378 100.458 110.01C101.781 110.654 103.377 110.288 104.277 109.13C105.519 107.842 135.117 72.4818 135.117 72.4818C135.695 71.667 136.833 71.4721 137.654 72.0466C137.747 72.1123 137.833 72.184 137.913 72.2658Z" fill="white"/>
</g>
</g>
</g>
</g>
</g>
</g>
</g>
</svg>
