<svg width="64" height="32" viewBox="0 0 64 32" fill="none" xmlns="http://www.w3.org/2000/svg">
<g id="Group 36263">
<rect id="Rectangle 28" width="64" height="32" rx="16" fill="#717EAD"/>
<g id="share">
<mask id="mask0_132_429" style="mask-type:alpha" maskUnits="userSpaceOnUse" x="20" y="4" width="24" height="24">
<rect id="Bounding box" x="20" y="4" width="24" height="24" fill="#D9D9D9"/>
</mask>
<g mask="url(#mask0_132_429)">
<path id="share_2" d="M37.922 25.775C37.1156 25.775 36.4312 25.493 35.8687 24.9291C35.3062 24.3652 35.025 23.6805 35.025 22.875C35.025 22.7589 35.0333 22.6387 35.05 22.5144C35.0666 22.39 35.0916 22.2781 35.125 22.1786L28.1 18.1C27.825 18.3583 27.517 18.5562 27.1762 18.6937C26.8353 18.8312 26.4782 18.9 26.1049 18.9C25.2933 18.9 24.6062 18.6168 24.0437 18.0505C23.4812 17.4842 23.2 16.7965 23.2 15.9875C23.2 15.1854 23.4819 14.5036 24.0458 13.9422C24.6097 13.3807 25.2944 13.1 26.1 13.1C26.4774 13.1 26.8384 13.1666 27.183 13.3C27.5276 13.4333 27.8333 13.625 28.1 13.875L35.125 9.7963C35.0916 9.69682 35.0666 9.5849 35.05 9.46055C35.0333 9.33622 35.025 9.21602 35.025 9.09995C35.025 8.2944 35.3072 7.60968 35.8717 7.04578C36.4361 6.48189 37.1215 6.19995 37.9279 6.19995C38.7343 6.19995 39.4187 6.48068 39.9812 7.04215C40.5437 7.6036 40.825 8.28537 40.825 9.08745C40.825 9.89648 40.543 10.5842 39.9791 11.1505C39.4152 11.7168 38.7305 12 37.925 12C37.5505 12 37.1923 11.9312 36.8503 11.7937C36.5084 11.6562 36.2 11.4583 35.925 11.2L28.9 15.275C28.9333 15.3797 28.9583 15.4976 28.975 15.6285C28.9916 15.7595 29 15.883 29 15.9991C29 16.1152 28.9916 16.2354 28.975 16.3598C28.9583 16.4841 28.9333 16.5961 28.9 16.6956L35.925 20.775C36.2 20.5166 36.5079 20.3187 36.8488 20.1812C37.1896 20.0437 37.5467 19.975 37.9201 19.975C38.7317 19.975 39.4187 20.2581 39.9812 20.8244C40.5437 21.3907 40.825 22.0784 40.825 22.8875C40.825 23.6895 40.5427 24.3713 39.9783 24.9328C39.4138 25.4942 38.7284 25.775 37.922 25.775ZM37.925 10.125C38.2083 10.125 38.45 10.025 38.65 9.82495C38.85 9.62495 38.95 9.38328 38.95 9.09995C38.95 8.81662 38.85 8.57495 38.65 8.37495C38.45 8.17495 38.2083 8.07495 37.925 8.07495C37.6416 8.07495 37.4 8.17495 37.2 8.37495C37 8.57495 36.9 8.81662 36.9 9.09995C36.9 9.38328 37 9.62495 37.2 9.82495C37.4 10.025 37.6416 10.125 37.925 10.125ZM26.1 17.025C26.3833 17.025 26.625 16.925 26.825 16.725C27.025 16.525 27.125 16.2833 27.125 16C27.125 15.7166 27.025 15.475 26.825 15.275C26.625 15.075 26.3833 14.975 26.1 14.975C25.8166 14.975 25.575 15.075 25.375 15.275C25.175 15.475 25.075 15.7166 25.075 16C25.075 16.2833 25.175 16.525 25.375 16.725C25.575 16.925 25.8166 17.025 26.1 17.025ZM37.925 23.9C38.2083 23.9 38.45 23.8 38.65 23.6C38.85 23.4 38.95 23.1583 38.95 22.875C38.95 22.5916 38.85 22.35 38.65 22.15C38.45 21.95 38.2083 21.85 37.925 21.85C37.6416 21.85 37.4 21.95 37.2 22.15C37 22.35 36.9 22.5916 36.9 22.875C36.9 23.1583 37 23.4 37.2 23.6C37.4 23.8 37.6416 23.9 37.925 23.9Z" fill="#1C1B1F"/>
</g>
</g>
</g>
</svg>
